<?xml version="1.0" standalone="no"?><!DOCTYPE svg PUBLIC "-//W3C//DTD SVG 1.1//EN" "http://www.w3.org/Graphics/SVG/1.1/DTD/svg11.dtd"><svg t="1762584740488" class="icon" viewBox="0 0 1024 1024" version="1.1" xmlns="http://www.w3.org/2000/svg" p-id="2788" xmlns:xlink="http://www.w3.org/1999/xlink" width="200" height="200"><path d="M636.073633 256.0064H378.241115C298.455113 256.0064 237.65562 140.423363 237.65562 90.930442c0-49.492921 13.525221-100.095166 93.737885-89.51392C411.734169 11.997767 444.331231 60.594695 509.525354 60.594695c63.658136 0 84.863293-61.780818 173.395888-59.135507 88.575262 2.645311 102.228481 43.775635 93.823218 89.513921C768.296531 136.711394 715.859635 256.0064 636.073633 256.0064z m-258.131183 63.999467h267.901768c296.530862 0 369.362255 484.134632 369.362255 557.307355 0 73.172724-62.036816 146.686778-138.537512 146.686778h-729.59392C70.574345 1024 8.537529 950.485946 8.537529 877.313222S81.411588 320.005867 377.94245 320.005867z m-41.556987 307.624103a191.315739 191.315739 0 0 0 58.538179 157.225356 21.333156 21.333156 0 1 0 29.439755-30.890409 148.649428 148.649428 0 0 1-45.951617-116.35103 63.999467 63.999467 0 1 0-42.026317-10.026584z m270.931076-118.057683a191.315739 191.315739 0 0 0-165.459954-27.903768 21.333156 21.333156 0 0 0 12.074566 40.959659 148.649428 148.649428 0 0 1 123.732302 18.346514 63.999467 63.999467 0 1 0 29.695752-31.402405z m-22.527812 284.75496a191.315739 191.315739 0 0 0 106.879109-129.278922 21.333156 21.333156 0 1 0-41.428988-10.111916 148.649428 148.649428 0 0 1-77.823351 98.004516 63.999467 63.999467 0 1 0 12.37323 41.386322z" fill="#7352BF" p-id="2789"></path></svg>