<?xml version="1.0" standalone="no"?><!DOCTYPE svg PUBLIC "-//W3C//DTD SVG 1.1//EN" "http://www.w3.org/Graphics/SVG/1.1/DTD/svg11.dtd"><svg t="1754711824612" class="icon" viewBox="0 0 1024 1024" version="1.1" xmlns="http://www.w3.org/2000/svg" p-id="1899" xmlns:xlink="http://www.w3.org/1999/xlink" width="64" height="64"><path d="M712.021333 279.722667a36.864 36.864 0 0 0 36.693334-36.864V150.357333a36.693333 36.693333 0 0 0-73.386667-1.365333v93.866667a36.864 36.864 0 0 0 36.693333 36.864m-392.533333 0a36.864 36.864 0 0 0 36.693333-36.864V150.357333a36.693333 36.693333 0 0 0-73.386666-1.365333v93.866667a36.864 36.864 0 0 0 36.693333 36.864m535.381333-73.557334H785.066667v36.693334a73.557333 73.557333 0 0 1-147.114667 0v-36.693334H392.533333v36.693334a73.557333 73.557333 0 0 1-146.944 0v-36.693334h-69.632a36.522667 36.522667 0 0 0-36.693333 36.864v594.432a36.693333 36.693333 0 0 0 36.693333 36.864H853.333333a36.864 36.864 0 0 0 36.864-36.864V242.688a36.522667 36.522667 0 0 0-36.693333-36.522667M819.2 793.6a9.216 9.216 0 0 1-9.216 9.216H219.648a9.216 9.216 0 0 1-9.045333-9.216V393.386667a9.045333 9.045333 0 0 1 9.045333-9.045334H810.666667a9.216 9.216 0 0 1 9.216 9.045334zM319.317333 522.922667A36.181333 36.181333 0 0 0 349.866667 563.2h321.365333a36.010667 36.010667 0 0 0 11.434667-70.826667H360.277333a36.181333 36.181333 0 0 0-40.96 30.549334m0 131.242666a36.010667 36.010667 0 0 0 30.549334 40.96h178.005333a36.181333 36.181333 0 0 0 10.581333-71.509333H360.277333a36.181333 36.181333 0 0 0-40.96 30.378667" fill="#FFBE61" p-id="1900"></path></svg>