<?xml version="1.0" standalone="no"?><!DOCTYPE svg PUBLIC "-//W3C//DTD SVG 1.1//EN" "http://www.w3.org/Graphics/SVG/1.1/DTD/svg11.dtd"><svg t="1762587107075" class="icon" viewBox="0 0 1024 1024" version="1.1" xmlns="http://www.w3.org/2000/svg" p-id="78750" xmlns:xlink="http://www.w3.org/1999/xlink" width="200" height="200"><path d="M796.444444 1024H227.555556a113.777778 113.777778 0 0 1-113.777778-113.777778V170.666667a113.777778 113.777778 0 0 1 113.777778-113.777778h113.777777v170.666667h341.333334V56.888889h113.777777a113.777778 113.777778 0 0 1 113.777778 113.777778v739.555555a113.777778 113.777778 0 0 1-113.777778 113.777778zM312.888889 398.222222A85.333333 85.333333 0 1 0 398.222222 483.555556 85.333333 85.333333 0 0 0 312.888889 398.222222z m0 284.444445A85.333333 85.333333 0 1 0 398.222222 768 85.333333 85.333333 0 0 0 312.888889 682.666667z m455.111111-284.444445h-284.444444a28.444444 28.444444 0 0 0 0 56.888889h284.444444a28.444444 28.444444 0 0 0 0-56.888889z m0 113.777778h-284.444444a28.444444 28.444444 0 0 0 0 56.888889h284.444444a28.444444 28.444444 0 0 0 0-56.888889z m0 170.666667h-284.444444a28.444444 28.444444 0 0 0 0 56.888889h284.444444a28.444444 28.444444 0 0 0 0-56.888889z m0 113.777777h-284.444444a28.444444 28.444444 0 0 0 0 56.888889h284.444444a28.444444 28.444444 0 0 0 0-56.888889zM568.888889 170.666667H455.111111a56.888889 56.888889 0 0 1-56.888889-56.888889V56.888889a56.888889 56.888889 0 0 1 56.888889-56.888889h113.777778a56.888889 56.888889 0 0 1 56.888889 56.888889v56.888889a56.888889 56.888889 0 0 1-56.888889 56.888889z" fill="#FF9800" p-id="78751"></path></svg>