<?xml version="1.0" standalone="no"?><!DOCTYPE svg PUBLIC "-//W3C//DTD SVG 1.1//EN" "http://www.w3.org/Graphics/SVG/1.1/DTD/svg11.dtd"><svg t="1762587171512" class="icon" viewBox="0 0 1024 1024" version="1.1" xmlns="http://www.w3.org/2000/svg" p-id="82045" xmlns:xlink="http://www.w3.org/1999/xlink" width="200" height="200"><path d="M859.298597 0.032211H164.150116A99.857748 99.857748 0 0 0 64.036383 100.329932v823.340456A100.289721 100.289721 0 0 0 164.662084 1023.968109h694.636513c54.932561 0 100.6257-44.005245 100.6257-100.297721V99.305996C959.412329 44.037456 914.231158 0.032211 859.298597 0.032211zM288.390338 217.506597h447.691973a23.518528 23.518528 0 0 1 23.614521 23.542526 23.518528 23.518528 0 0 1-23.614521 23.534526H288.390338c-13.351164 0-23.614522-13.303167-23.614522-23.534526 0-12.791199 9.75139-23.542526 23.614522-23.542526z m0 164.773684H569.740724a23.518528 23.518528 0 0 1 23.614522 23.542526 23.518528 23.518528 0 0 1-23.614522 23.534527H288.390338c-13.351164 0-23.614522-13.303167-23.614522-23.534527 0-12.799199 9.75139-23.542526 23.614522-23.542526z m139.13529 186.772307a23.518528 23.518528 0 0 1-23.622522 23.542526h-115.512768a23.510528 23.510528 0 0 1-23.614522-23.542526 23.518528 23.518528 0 0 1 23.614522-23.534526h115.512768c12.839196 0 26.19036 9.719392 23.622522 23.534526z m344.490433 288.605932l-110.37709-52.188732-110.385089 52.188732 26.18236-104.385465-81.114921-104.905432H606.698411l54.94056-104.385465 54.932561 104.385465h110.37709l-81.62689 104.393464 26.694329 104.897433z" fill="#1F6FB4" p-id="82046"></path></svg>