<?xml version="1.0" standalone="no"?><!DOCTYPE svg PUBLIC "-//W3C//DTD SVG 1.1//EN" "http://www.w3.org/Graphics/SVG/1.1/DTD/svg11.dtd"><svg t="1754711683342" class="icon" viewBox="0 0 1024 1024" version="1.1" xmlns="http://www.w3.org/2000/svg" p-id="2821" xmlns:xlink="http://www.w3.org/1999/xlink" width="64" height="64"><path d="M213.333333 42.666667h597.333334a85.333333 85.333333 0 0 1 85.333333 85.333333v768a85.333333 85.333333 0 0 1-85.333333 85.333333H213.333333a85.333333 85.333333 0 0 1-85.333333-85.333333V128a85.333333 85.333333 0 0 1 85.333333-85.333333z m298.666667 512a192 192 0 1 0 0-384 192 192 0 0 0 0 384z m-266.666667 64a32 32 0 0 0 0 64h362.666667a32 32 0 0 0 0-64h-362.666667z m0 149.333333a32 32 0 0 0 0 64h234.666667a32 32 0 0 0 0-64h-234.666667z m194.325334-369.28l-51.52-52.992a14.442667 14.442667 0 0 1-3.370667-14.784c1.706667-5.184 6.186667-8.96 11.605333-9.749333l70.784-10.666667 31.850667-67.541333a14.592 14.592 0 0 1 26.389333 0.064l31.616 67.733333 70.656 10.88a14.442667 14.442667 0 0 1 11.584 9.813333 14.442667 14.442667 0 0 1-3.413333 14.72l-51.626667 52.821334 11.648 72.490666a14.570667 14.570667 0 0 1-13.802666 19.157334h-0.192a15.466667 15.466667 0 0 1-6.762667-1.642667l-63.232-35.157333-63.146667 34.752a14.549333 14.549333 0 0 1-21.397333-15.125334l12.330667-74.752z m342.741333 218.517333l-162.090667 158.250667a42.666667 42.666667 0 0 0-12.202666 22.997333l-7.722667 43.157334a10.666667 10.666667 0 0 0 13.546667 12.096l44.8-13.312a42.666667 42.666667 0 0 0 17.642666-10.368l161.322667-157.397334a21.333333 21.333333 0 0 0 0-30.549333l-25.493333-24.874667a21.333333 21.333333 0 0 0-29.802667 0z" fill="#2BC59F" p-id="2822"></path></svg>