<?xml version="1.0" standalone="no"?><!DOCTYPE svg PUBLIC "-//W3C//DTD SVG 1.1//EN" "http://www.w3.org/Graphics/SVG/1.1/DTD/svg11.dtd"><svg t="1762586168508" class="icon" viewBox="0 0 1024 1024" version="1.1" xmlns="http://www.w3.org/2000/svg" p-id="40193" xmlns:xlink="http://www.w3.org/1999/xlink" width="200" height="200"><path d="M531.46112 777.46176c0-72.93952 32.38912-138.27072 83.52256-182.53824a691.72736 691.72736 0 0 0-103.1936-7.68c-236.14976 0-427.5968 116.58752-427.5968 260.39296 0 143.8208 191.44704 119.51616 427.5968 119.51616 39.23456 0 77.18912 0.6656 113.28512 1.1264-56.9344-44.17024-93.61408-113.18784-93.61408-190.81728zM511.78496 50.29376c-142.94016 0-258.81088 115.8656-258.81088 258.79552 0 142.9504 115.87072 258.82112 258.81088 258.82112 142.94528 0 258.80576-115.87072 258.80576-258.82112 0-142.92992-115.86048-258.79552-258.80576-258.79552z m0 419.66592C462.336 469.95968 421.02272 450.56 410.5216 389.12h54.94272c8.53504 10.24 25.96864 28.87168 46.32064 28.87168 20.35712 0 37.8112-18.63168 46.33088-28.87168h54.94784c-10.50112 61.44-51.83488 80.83968-101.27872 80.83968z" fill="#FFAF22" p-id="40194"></path><path d="M776.09472 582.66112c-106.83392 0-193.4336 86.59968-193.4336 193.4336s86.59968 193.4336 193.4336 193.4336 193.4336-86.59968 193.4336-193.4336-86.59968-193.4336-193.4336-193.4336zM875.52 849.92h-199.68v-46.08h199.68v46.08z m0-102.4h-199.68v-46.08h199.68v46.08z" fill="#FFCD7D" p-id="40195"></path></svg>