<?xml version="1.0" standalone="no"?><!DOCTYPE svg PUBLIC "-//W3C//DTD SVG 1.1//EN" "http://www.w3.org/Graphics/SVG/1.1/DTD/svg11.dtd"><svg t="1754710998860" class="icon" viewBox="0 0 1024 1024" version="1.1" xmlns="http://www.w3.org/2000/svg" p-id="2172" xmlns:xlink="http://www.w3.org/1999/xlink" width="64" height="64"><path d="M554.666667 341.333333h106.666666a42.666667 42.666667 0 1 1 0 85.333334h-149.333333a42.666667 42.666667 0 0 1-42.666667-42.666667v-149.333333a42.666667 42.666667 0 1 1 85.333334 0v106.666666zM515.584 0C730.922667 0 896 175.68 896 395.306667c0 161.024-215.317333 453.845333-322.986667 600.256l-7.189333 7.317333c-28.693333 29.269333-86.122667 29.269333-114.837333-7.317333C343.317333 856.469333 128 556.330667 128 395.285333 135.168 175.68 300.266667 0 515.584 0zM512 640c141.376 0 256-114.624 256-256S653.376 128 512 128s-256 114.624-256 256 114.624 256 256 256z" fill="#2BC59F" p-id="2173"></path></svg>