<?xml version="1.0" standalone="no"?><!DOCTYPE svg PUBLIC "-//W3C//DTD SVG 1.1//EN" "http://www.w3.org/Graphics/SVG/1.1/DTD/svg11.dtd"><svg t="1762587650909" class="icon" viewBox="0 0 1024 1024" version="1.1" xmlns="http://www.w3.org/2000/svg" p-id="102650" xmlns:xlink="http://www.w3.org/1999/xlink" width="200" height="200"><path d="M521.81248 48a126.656 126.656 0 0 1 81.248 30.56l368.992 262.144c23.648 18.016 61.856 53.408 50.016 89.952-8.096 24.576-32.256 37.12-72.096 37.12h-32.256v407.648a107.712 107.712 0 0 1-103.264 111.2H219.98848a107.328 107.328 0 0 1-103.264-111.2v-413.12h-57.6c-32.864-2.208-52.224-14.752-57.6-36.512-8.032-31.584 20.992-57.184 39.84-69.216l392.832-275.904A142.496 142.496 0 0 1 521.81248 48z m-117.76 350.4a28.416 28.416 0 0 0-41.6 0 29.536 29.536 0 0 0 0 42.336l98.048 99.68h-89.216a30.208 30.208 0 0 0 0 60.416h121.856v72.544h-118.848a30.176 30.176 0 0 0 0 60.32h118.88v117.76a29.696 29.696 0 1 0 59.392 0v-117.76h118.88a30.272 30.272 0 0 0 0-60.512h-118.848v-72.448h121.856a30.176 30.176 0 0 0 0-60.32h-89.216l98.144-99.68a29.536 29.536 0 0 0 0-42.336 28.416 28.416 0 0 0-41.6 0l-118.944 120.832z" fill="#0067FF" p-id="102651"></path></svg>