<?xml version="1.0" standalone="no"?><!DOCTYPE svg PUBLIC "-//W3C//DTD SVG 1.1//EN" "http://www.w3.org/Graphics/SVG/1.1/DTD/svg11.dtd"><svg t="1754710971884" class="icon" viewBox="0 0 1024 1024" version="1.1" xmlns="http://www.w3.org/2000/svg" p-id="1848" xmlns:xlink="http://www.w3.org/1999/xlink" width="64" height="64"><path d="M725.333333 341.333333c101.333333 0.789333 183.253333 83.456 183.253334 185.28 0 102.314667-82.709333 185.28-184.725334 185.28-3.733333 0-7.466667-0.106667-11.157333-0.32C675.712 830.613333 561.664 917.333333 426.666667 917.333333c-164.949333 0-298.666667-129.493333-298.666667-289.344V234.666667h597.333333v106.666666z m0 47.829334V628.053333c0 12.181333-0.789333 24.213333-2.282666 36.010667h0.810666c75.690667 0 137.045333-61.546667 137.045334-137.472 0-75.413333-60.586667-136.661333-135.573334-137.450667zM266.666667 0A32 32 0 0 1 298.666667 32v128a32 32 0 0 1-64 0v-128A32 32 0 0 1 266.666667 0z m149.333333 0A32 32 0 0 1 448 32v128a32 32 0 0 1-64 0v-128A32 32 0 0 1 416 0z m149.333333 0A32 32 0 0 1 597.333333 32v128a32 32 0 0 1-64 0v-128A32 32 0 0 1 565.333333 0z m-426.666666 960h576a32 32 0 0 1 0 64h-576a32 32 0 0 1 0-64z" fill="#3ABCFB" p-id="1849"></path></svg>