<?xml version="1.0" standalone="no"?><!DOCTYPE svg PUBLIC "-//W3C//DTD SVG 1.1//EN" "http://www.w3.org/Graphics/SVG/1.1/DTD/svg11.dtd"><svg t="1761916524127" class="icon" viewBox="0 0 1024 1024" version="1.1" xmlns="http://www.w3.org/2000/svg" p-id="17490" xmlns:xlink="http://www.w3.org/1999/xlink" width="200" height="200"><path d="M35.699726 77.725808h59.476164c4.138082 0 7.420493 3.282411 7.420494 7.41348 0 4.138082-3.282411 7.420493-7.420494 7.420493H35.699726c-4.138082 0-7.420493-3.282411-7.420493-7.420493 0-4.138082 3.282411-7.413479 7.420493-7.41348z" fill="#F4C15B" p-id="17491"></path><path d="M65.493918 47.924603c4.138082 0 7.420493 3.282411 7.420493 7.413479v59.476165c0 4.138082-3.282411 7.420493-7.420493 7.420493-4.138082 0-7.420493-3.282411-7.420493-7.420493V55.338082c0-4.138082 3.289425-7.413479 7.420493-7.413479z" fill="#F4C15B" p-id="17492"></path><path d="M362.033096 116.273096l28.700055 7.665972c4.018849 1.094137 6.326356 5.105973 5.232219 9.117809a7.364384 7.364384 0 0 1-9.117808 5.232219l-28.707069-7.658959a7.364384 7.364384 0 0 1-5.232219-9.117808c1.21337-3.899616 5.105973-6.326356 9.117808-5.239233z" fill="#1890FF" p-id="17493"></path><path d="M414.937425 74.555616l7.665972 28.707069a7.364384 7.364384 0 0 1-5.232219 9.117808 7.364384 7.364384 0 0 1-9.117808-5.225205l-7.665973-28.826302a7.364384 7.364384 0 0 1 5.232219-9.117808c4.011836-0.981918 8.149918 1.332603 9.117809 5.351452z" fill="#40A9FF" p-id="17494"></path><path d="M477.583781 99.489315l-21.041096 21.041096a7.343342 7.343342 0 0 1-10.464438 0 7.343342 7.343342 0 0 1 0-10.450411l21.041095-21.04811a7.343342 7.343342 0 0 1 10.464439 0 7.343342 7.343342 0 0 1 0 10.457425z" fill="#91D5FF" p-id="17495"></path><path d="M927.000548 113.362411c-24.568986 0-44.515945 19.946959-44.515945 44.635178a44.536986 44.536986 0 0 0 44.515945 44.515945c24.568986 0 44.642192-19.946959 44.642192-44.515945-0.126247-24.688219-20.073205-44.635178-44.642192-44.635178z m0 74.310137a29.843288 29.843288 0 0 1-29.794192-29.794192 29.843288 29.843288 0 0 1 29.794192-29.808219 29.850301 29.850301 0 0 1 29.801205 29.808219c-0.119233 16.538301-13.50137 29.794192-29.801205 29.794192z" fill="#F4C15B" p-id="17496"></path><path d="M905.713973 374.987397l-446.14137-59.476164v235.716383l446.14137 46.823452V374.980384z" fill="#1890FF" p-id="17497"></path><path d="M102.596384 392.746082l356.856986-77.115616v267.712876l-356.856986 77.108603v-267.712877z" fill="#40A9FF" p-id="17498"></path><path d="M519.055781 482.016438l386.658192-106.909808v505.491288l-386.665206 106.916822V482.016438z" fill="#1890FF" p-id="17499"></path><path d="M102.596384 392.746082l416.33315 89.270356v502.819069l-416.33315-101.319891V392.746082z" fill="#40A9FF" p-id="17500"></path><path d="M519.048767 481.167781L102.58937 392.746082 13.312 571.174575l431.300384 101.319891 74.436383-191.326685z" fill="#91D5FF" p-id="17501"></path><path d="M756.595726 28.461589l-44.635178 18.123397v59.476165l44.635178-18.123398v-59.476164z" fill="#F4C15B" p-id="17502"></path><path d="M659.77863 87.937753l44.642192 18.123398v-59.476165L659.77863 28.461589v59.476164z m96.817096-65.437808L708.79737 3.647123l-48.892493 16.903014 48.77326 20.683397 47.917589-18.733589z" fill="#E5CF6E" p-id="17503"></path><path d="M519.055781 482.016438l386.658192-106.909808 104.118356 178.428493-371.824219 121.757809-118.952329-193.276494z" fill="#40A9FF" p-id="17504"></path><path d="M728.260384 388.243288s16.538301-104.363836 102.897972-156.293261c0 0 7.539726 8.51463 22.626192 27.851398 0 0-39.409973-6.20011-125.524164 128.441863z" fill="#91D5FF" p-id="17505"></path><path d="M519.055781 383.985973s1.704329-57.161644 43.541041-186.094466c0 0 7.539726 8.51463 22.626192 27.851397-0.126247 0-15.935123 13.746849-66.167233 158.243069z" fill="#40A9FF" p-id="17506"></path><path d="M373.584658 373.647781s-47.068932-138.415342-162.374137-200.809206c0 0-19.217534 27.00274-40.384877 35.510357-0.119233 0 132.699178 46.220274 202.766027 165.298849z" fill="#E5CF6E" p-id="17507"></path></svg>