<?xml version="1.0" standalone="no"?><!DOCTYPE svg PUBLIC "-//W3C//DTD SVG 1.1//EN" "http://www.w3.org/Graphics/SVG/1.1/DTD/svg11.dtd"><svg t="1754843783185" class="icon" viewBox="0 0 1024 1024" version="1.1" xmlns="http://www.w3.org/2000/svg" p-id="2788" xmlns:xlink="http://www.w3.org/1999/xlink" width="64" height="64"><path d="M295.936 541.184l187.733333 371.712H234.666667a102.4 102.4 0 0 1-101.546667-102.4v-167.594667a102.4 102.4 0 0 1 102.4-102.4z m80.554667-376.661333a187.733333 187.733333 0 0 1 321.365333 132.778666A192.341333 192.341333 0 0 1 672.426667 392.533333a182.272 182.272 0 0 1-68.266667 68.266667 185.344 185.344 0 0 1-187.733333 0 182.272 182.272 0 0 1-69.12-68.266667 192.341333 192.341333 0 0 1-25.429334-94.378666 189.269333 189.269333 0 0 1 54.613334-133.632zM596.309333 648.533333l-86.698666 182.613334L423.082667 648.533333l86.528-76.117333z m260.437334-77.141333a112.981333 112.981333 0 0 1 34.133333 71.338667v168.448a99.328 99.328 0 0 1-29.696 71.509333 105.642667 105.642667 0 0 1-71.850667 30.208H539.818667L723.285333 541.013333H785.066667a106.154667 106.154667 0 0 1 72.192 30.378667z" fill="#2c2c2c" p-id="2789"></path></svg>