<?xml version="1.0" standalone="no"?><!DOCTYPE svg PUBLIC "-//W3C//DTD SVG 1.1//EN" "http://www.w3.org/Graphics/SVG/1.1/DTD/svg11.dtd"><svg t="1762608338479" class="icon" viewBox="0 0 1024 1024" version="1.1" xmlns="http://www.w3.org/2000/svg" p-id="12181" xmlns:xlink="http://www.w3.org/1999/xlink" width="200" height="200"><path d="M239.2 202.8c28.7 9.2 65.8 8 111.6-4.5 47.6-13 95.9-35.9 144.9-68.8 9.5-6.4 21.9-6.5 31.6-0.3 53.2 34.1 101.9 57.1 145.9 69.1 42.4 11.6 80 12.8 113.1 4.1 18.3-4.8 36.1 9 36.1 27.9v348.5c0 146.6-102.5 273.1-245.9 303.6-18.1 3.8-36.6 8.9-55.4 15.2-5.9 2-12.3 2-18.2 0-18.8-6.2-37.3-11.3-55.4-15.1-143.4-30.4-246-157-246-303.6V230.2c0.1-19.5 19.1-33.4 37.7-27.4z m221.9 405.4l-89-98.2c-9.4-9.8-23.2-7.9-32.6 1.9L317.7 535c-2.3 2.5-2.3 6.4 0 8.9l105.6 115.6 20.6 21.8 0.2 0.2c9.4 9.8 24.7 9.7 34-0.2L707 430.9c2.3-2.5 2.3-6.4 0-8.9l-23.3-24.2c-9.4-9.8-23.4-8.7-32.8 1.1L461.1 608.2z m0 0" p-id="12182"></path></svg>