<?xml version="1.0" standalone="no"?><!DOCTYPE svg PUBLIC "-//W3C//DTD SVG 1.1//EN" "http://www.w3.org/Graphics/SVG/1.1/DTD/svg11.dtd"><svg t="1754711003331" class="icon" viewBox="0 0 1024 1024" version="1.1" xmlns="http://www.w3.org/2000/svg" p-id="2334" xmlns:xlink="http://www.w3.org/1999/xlink" width="64" height="64"><path d="M661.333333 42.666667v149.333333a85.333333 85.333333 0 0 0 85.333334 85.333333h149.333333v618.666667a85.333333 85.333333 0 0 1-85.333333 85.333333H213.333333a85.333333 85.333333 0 0 1-85.333333-85.333333V128a85.333333 85.333333 0 0 1 85.333333-85.333333h448z m-90.581333 630.762666l39.253333-164.010666a15.210667 15.210667 0 0 0-7.466666-16.810667 15.488 15.488 0 0 0-18.346667 2.474667l-216.96 213.333333a15.146667 15.146667 0 0 0-3.413333 16.64 15.381333 15.381333 0 0 0 14.229333 9.450667h96.618667l-38.826667 164.053333a15.210667 15.210667 0 0 0 7.466667 16.853333 15.488 15.488 0 0 0 18.346666-2.538666l216.469334-213.333334a15.146667 15.146667 0 0 0 3.392-16.661333 15.381333 15.381333 0 0 0-14.250667-9.450667h-96.512zM288 192a32 32 0 0 0 0 64h234.666667a32 32 0 0 0 0-64h-234.666667z m0 170.666667a32 32 0 0 0 0 64h448a32 32 0 0 0 0-64h-448z" fill="#FF6033" p-id="2335"></path><path d="M661.333333 42.666667l234.666667 234.666666h-149.333333a85.333333 85.333333 0 0 1-85.333334-85.333333V42.666667z" fill="#F6A58F" p-id="2336"></path></svg>