<?xml version="1.0" standalone="no"?><!DOCTYPE svg PUBLIC "-//W3C//DTD SVG 1.1//EN" "http://www.w3.org/Graphics/SVG/1.1/DTD/svg11.dtd"><svg t="1763207789151" class="icon" viewBox="0 0 1024 1024" version="1.1" xmlns="http://www.w3.org/2000/svg" p-id="14152" xmlns:xlink="http://www.w3.org/1999/xlink" width="200" height="200"><path d="M512 79.43C273.1 79.43 79.43 273.1 79.43 512S273.1 944.57 512 944.57 944.57 750.9 944.57 512 750.9 79.43 512 79.43z m-9.4 664.36a34.3 34.3 0 1 1 34.29-34.3 34.3 34.3 0 0 1-34.29 34.3z m156.25-313.32c-2.35 37.11-13.61 90.25-83.9 123.41-21.33 10.87-35.22 24.66-41.31 41a46.59 46.59 0 0 0-3.15 16.52 31.3 31.3 0 0 1-62 8.72c-0.5-3.6-2.57-22.8 6.49-47.11 8.11-21.75 27.19-52.44 72.07-75.16l0.85-0.41c37.91-17.77 46.48-39.46 48.47-70.91 0.4-6.31 1.34-38.91-19.45-61.06-14.1-15-36.41-22.64-66.29-22.64-32.53 0-56.12 9.56-70.13 28.41a69.56 69.56 0 0 0-12.66 30.34l-0.05 0.95a31.3 31.3 0 0 1-56.19 21.93c-6-8-8-17.8-6-29.86a131.5 131.5 0 0 1 22.08-57.16c18-26.1 54-57.21 122.91-57.21 47.86 0 85.52 14.27 111.93 42.4 37.48 39.9 37.29 92.63 36.33 107.84z" p-id="14153"></path></svg>