<?xml version="1.0" standalone="no"?><!DOCTYPE svg PUBLIC "-//W3C//DTD SVG 1.1//EN" "http://www.w3.org/Graphics/SVG/1.1/DTD/svg11.dtd"><svg t="1762587332266" class="icon" viewBox="0 0 1024 1024" version="1.1" xmlns="http://www.w3.org/2000/svg" p-id="85890" xmlns:xlink="http://www.w3.org/1999/xlink" width="200" height="200"><path d="M810.666667 515.541333c-13.866667-2.346667-28.138667-3.541333-42.666667-3.541333-141.376 0-256 114.624-256 256 0 67.413333 26.048 128.746667 68.650667 174.464l-30.762667 27.050667a21.333333 21.333333 0 0 1-27.434667 0.64l-78.186666-62.656a21.333333 21.333333 0 0 0-27.861334 1.024l-64.896 60.288a21.333333 21.333333 0 0 1-27.861333 1.024l-78.528-62.912a21.333333 21.333333 0 0 0-27.050667 0.32L129.792 981.333333H128a85.333333 85.333333 0 0 1-85.333333-85.333333V128a85.333333 85.333333 0 0 1 85.333333-85.333333h597.333333a85.333333 85.333333 0 0 1 85.333334 85.333333v387.541333zM245.333333 554.666667a32 32 0 0 0 0 64h192a32 32 0 0 0 0-64h-192z m0-192a32 32 0 0 0 0 64h362.666667a32 32 0 0 0 0-64h-362.666667z m0-192a32 32 0 0 0 0 64h362.666667a32 32 0 0 0 0-64h-362.666667zM768 981.333333c-117.824 0-213.333333-95.509333-213.333333-213.333333s95.509333-213.333333 213.333333-213.333333 213.333333 95.509333 213.333333 213.333333-95.509333 213.333333-213.333333 213.333333z m105.237333-185.536h-84.778666v-37.653333h84.778666c7.893333 0.576 15.424-2.837333 19.626667-8.874667a16.96 16.96 0 0 0 0-19.669333c-4.074667-6.037333-11.733333-9.450667-19.626667-8.874667h-54.805333l54.677333-48.576a17.557333 17.557333 0 0 0 6.293334-13.290666 17.962667 17.962667 0 0 0-6.293334-13.312 23.146667 23.146667 0 0 0-29.866666 0l-77.866667 68.906666-77.738667-68.906666a23.04 23.04 0 0 0-29.994666 0 17.557333 17.557333 0 0 0-6.293334 13.312c0 4.992 2.346667 9.770667 6.293334 13.290666l54.912 48.576h-51.328c-11.221333 0.576-19.989333 8.746667-19.989334 18.773334 0 10.005333 8.746667 18.197333 19.989334 18.773333h84.778666v37.525333h-84.906666c-11.605333 0-21.098667 8.405333-21.098667 18.773334 0 10.346667 9.386667 18.773333 21.12 18.773333h84.885333v43.776c0 10.453333 9.493333 18.88 21.226667 18.88s21.226667-8.426667 21.226667-18.88v-43.797333h84.778666c11.605333 0 21.098667-8.405333 21.098667-18.773334 0-10.346667-9.386667-18.773333-21.12-18.773333z" fill="#FAAD14" p-id="85891"></path></svg>