<?xml version="1.0" standalone="no"?><!DOCTYPE svg PUBLIC "-//W3C//DTD SVG 1.1//EN" "http://www.w3.org/Graphics/SVG/1.1/DTD/svg11.dtd"><svg t="1754758542794" class="icon" viewBox="0 0 1024 1024" version="1.1" xmlns="http://www.w3.org/2000/svg" p-id="42895" xmlns:xlink="http://www.w3.org/1999/xlink" width="64" height="64"><path d="M344.838656 456.4992a18.1248 18.1248 0 0 0 13.4656-6.3488l95.1296-92.7232a16.7936 16.7936 0 0 0 0-24.576L368.646656 249.6512l-1.5872-3.9424a47.1552 47.1552 0 0 1 1.5872-37.2736l1.5872-1.5872 6.3488-11.1104a499.6608 499.6608 0 0 1 52.3264-65.792l0.768-0.768a249.088 249.088 0 0 1 154.5728-68.1472h2.3552a19.8656 19.8656 0 0 0 17.4592-11.1104 18.2272 18.2272 0 0 0-10.24-23.7568h-1.5872a358.4 358.4 0 0 0-383.5904 74.496L4.973056 294.8608a15.36 15.36 0 0 0-4.7616 12.6976 22.4768 22.4768 0 0 0 4.7616 12.6976l120.4736 116.5312a19.6608 19.6608 0 0 0 26.9312 0l81.6128-79.2576 13.4656 13.4656 83.2 80.8448a50.3808 50.3808 0 0 0 14.1824 4.6592z m626.1248 447.0272a15.36 15.36 0 0 0 4.7616-12.6976 18.688 18.688 0 0 0-4.7616-12.6976l-252.8256-253.6448a16.7936 16.7936 0 0 0-24.576 0l-94.3104 92.7232a15.36 15.36 0 0 0-4.7616 12.6976 16.7424 16.7424 0 0 0 4.7616 12.6976l252.8256 253.6448a15.36 15.36 0 0 0 12.6976 4.7616 17.9712 17.9712 0 0 0 12.6976-4.7616l93.5424-92.7232z" fill="#FFA011" p-id="42896"></path><path d="M963.078656 386.7648a211.3536 211.3536 0 0 0 40.96-240.1792 16.64 16.64 0 0 0-13.4656-10.24 17.664 17.664 0 0 0-15.872 4.7616l-121.2416 121.2416-68.1472-68.1472L905.785856 73.728a16.0768 16.0768 0 0 0 4.7616-15.872 17.5616 17.5616 0 0 0-11.1104-13.4656 208.4864 208.4864 0 0 0-87.9616-18.2272 205.3632 205.3632 0 0 0-148.224 61.7984 214.1184 214.1184 0 0 0-52.3264 213.1968l3.9424 11.1104-304.3328 303.5648-11.1104-3.9424a212.0192 212.0192 0 0 0-257.5872 288.512 16.1792 16.1792 0 0 0 13.4656 11.1104 20.1728 20.1728 0 0 0 15.872-4.7616l118.8864-118.8864 68.1472 68.1472-117.2992 118.8864a16.896 16.896 0 0 0-4.7616 15.872 19.8656 19.8656 0 0 0 10.24 13.4656 213.1456 213.1456 0 0 0 92.16 19.8144 208.5376 208.5376 0 0 0 148.992-61.7984 214.7328 214.7328 0 0 0 50.7392-216.3712l-3.9424-10.24 302.08-302.08 11.1104 3.9424a219.2896 219.2896 0 0 0 68.1472 11.1104 206.2336 206.2336 0 0 0 147.4048-61.7984z" fill="#FFA011" p-id="42897"></path></svg>