<?xml version="1.0" standalone="no"?><!DOCTYPE svg PUBLIC "-//W3C//DTD SVG 1.1//EN" "http://www.w3.org/Graphics/SVG/1.1/DTD/svg11.dtd"><svg t="1754710980792" class="icon" viewBox="0 0 1024 1024" version="1.1" xmlns="http://www.w3.org/2000/svg" p-id="2010" xmlns:xlink="http://www.w3.org/1999/xlink" width="64" height="64"><path d="M233.322667 706.858667c64.106667 55.594667 144.725333 92.373333 233.152 101.546666l-111.232 208.298667a26.709333 26.709333 0 0 1-17.557334 7.082667c-3.52 0-3.52 0 0 0-10.538667 0-17.557333-7.082667-21.077333-14.186667l-35.136-127.530667-126.464 35.434667c-7.04 3.541333-17.557333 0-21.077333-7.082667-3.52-7.082667-7.04-14.165333-3.52-21.248l102.912-182.314666z m345.258666 98.282666c86.869333-14.186667 164.906667-54.848 225.941334-113.130666l109.290666 193.621333c3.52 7.082667 3.52 17.706667-3.498666 21.248-3.52 7.082667-14.058667 10.624-21.077334 7.082667l-126.485333-35.413334-35.114667 127.509334c3.498667 10.645333-3.52 17.706667-14.058666 17.706666a19.306667 19.306667 0 0 1-17.557334-10.624l-117.44-208zM510.293333 768C300.202667 768 128 595.029333 128 384S300.202667 0 510.293333 0C720.341333 0 896 169.514667 896 380.544 896 591.573333 723.797333 768 510.293333 768z m-103.189333-192h3.904l97.130667-48.512L605.226667 576c7.765333 0 15.552 0 23.317333-4.053333 3.882667-4.032 7.765333-12.117333 7.765333-20.202667l-11.648-109.141333 73.813334-80.853334c3.904-8.064 7.786667-16.149333 3.904-24.234666 0-8.085333-7.786667-16.170667-15.552-16.170667l-104.917334-20.202667-50.496-97.024c-7.786667-16.149333-31.082667-16.149333-38.869333 0l-50.496 97.024-104.917333 20.202667c-7.765333 4.053333-11.648 8.106667-15.552 16.170667-3.882667 8.085333 0 16.170667 3.904 24.256l73.813333 80.853333-11.648 109.12c-3.882667 8.106667 0 16.170667 7.765333 20.224 3.882667 4.032 7.765333 4.032 11.648 4.032z" fill="#2BC59F" p-id="2011"></path></svg>