<?xml version="1.0" standalone="no"?><!DOCTYPE svg PUBLIC "-//W3C//DTD SVG 1.1//EN" "http://www.w3.org/Graphics/SVG/1.1/DTD/svg11.dtd"><svg t="1762586495295" class="icon" viewBox="0 0 1024 1024" version="1.1" xmlns="http://www.w3.org/2000/svg" p-id="60275" xmlns:xlink="http://www.w3.org/1999/xlink" width="200" height="200"><path d="M981.333333 170.666667v512a85.333333 85.333333 0 0 1-85.333333 85.333333H128a85.333333 85.333333 0 0 1-85.333333-85.333333V170.666667a85.333333 85.333333 0 0 1 85.333333-85.333334h768a85.333333 85.333333 0 0 1 85.333333 85.333334z m-498.986666 256.682666v50.56H341.333333a32 32 0 1 0 0 64h141.013334v85.546667a32 32 0 0 0 64 0V541.866667h139.690666a32 32 0 0 0 0-64h-139.690666v-50.56h120.618666a32 32 0 1 0 0-64h-94.634666l88.96-141.226667a32 32 0 1 0-54.186667-34.090667l-92.842667 147.456-93.610666-147.541333a32 32 0 1 0-54.016 34.304l89.514666 141.098667H359.68a32 32 0 1 0 0 64h122.624zM981.333333 896a42.666667 42.666667 0 0 1-42.666666 42.666667H85.333333a42.666667 42.666667 0 0 1 0-85.333334h853.333334a42.666667 42.666667 0 0 1 42.666666 42.666667z" fill="#7452BF" p-id="60276"></path></svg>