<?xml version="1.0" standalone="no"?><!DOCTYPE svg PUBLIC "-//W3C//DTD SVG 1.1//EN" "http://www.w3.org/Graphics/SVG/1.1/DTD/svg11.dtd"><svg t="1762587210929" class="icon" viewBox="0 0 1024 1024" version="1.1" xmlns="http://www.w3.org/2000/svg" p-id="84791" xmlns:xlink="http://www.w3.org/1999/xlink" width="200" height="200"><path d="M786.285714 18.285714a146.285714 146.285714 0 0 1 146.285715 146.285715v389.668571A273.005714 273.005714 0 0 0 786.285714 512c-151.478857 0-274.285714 122.806857-274.285714 274.285714 0 89.728 43.099429 169.398857 109.714286 219.446857L164.571429 1005.714286a146.285714 146.285714 0 0 1-146.285715-146.285715V164.571429a146.285714 146.285714 0 0 1 146.285715-146.285715h621.714285z m0 548.571429c121.179429 0 219.428571 98.249143 219.428572 219.428571s-98.249143 219.428571-219.428572 219.428572-219.428571-98.249143-219.428571-219.428572 98.249143-219.428571 219.428571-219.428571z m88.941715 164.937143l-77.842286 82.834285-29.659429-51.236571a27.428571 27.428571 0 0 0-42.752-6.034286l-68.205714 65.572572a27.428571 27.428571 0 0 0 38.034286 39.552l42.971428-41.325715 30.628572 52.882286a27.428571 27.428571 0 0 0 43.721143 5.028572l103.076571-109.714286a27.428571 27.428571 0 1 0-39.972571-37.558857zM429.714286 768h-219.428572a27.428571 27.428571 0 0 0-2.633143 54.729143L210.285714 822.857143h219.428572a27.428571 27.428571 0 0 0 0-54.857143z m0-182.857143h-219.428572a27.428571 27.428571 0 0 0-2.633143 54.729143L210.285714 640h219.428572a27.428571 27.428571 0 0 0 0-54.857143zM315.684571 182.747429a15.926857 15.926857 0 0 0-11.776 5.394285l-1.152 1.517715-0.914285 1.645714-29.348572 87.241143-89.636571 3.437714-1.956572 0.603429a18.724571 18.724571 0 0 0-7.021714 4.516571 17.316571 17.316571 0 0 0-4.882286 11.977143c0 2.742857 0.676571 5.12 1.792 7.387428l0.914286 1.682286 1.371429 2.048 71.716571 54.765714-26.075428 91.52 0.073142 2.870858c0.237714 4.534857 1.133714 7.972571 3.181715 10.825142 2.450286 3.419429 6.509714 5.12 12.214857 5.12a13.897143 13.897143 0 0 0 3.273143-0.420571l1.627428-0.457143 2.450286-0.822857 73.344-55.588571 73.344 55.588571 1.353143 0.621714 1.590857 0.548572 1.755429 0.402285 1.828571 0.146286h2.432l2.011429-0.566857a17.974857 17.974857 0 0 0 11.885714-14.006857l0.164571-2.121143-0.219428-2.139429-26.075429-91.52 71.716572-54.765714 1.389714-2.011428c2.889143-4.992 3.510857-11.337143 3.510857-15.085715-0.64-3.328-4.224-7.68-8.484571-9.874285l-1.846858-0.786286-1.883428-0.457143-89.654857-3.437714-29.348572-87.241143-1.078857-1.536c-1.554286-2.029714-3.657143-3.949714-6.235428-5.302857-2.450286-0.877714-4.900571-1.718857-7.350858-1.718857z" fill="#FF9803" p-id="84792"></path></svg>