<?xml version="1.0" standalone="no"?><!DOCTYPE svg PUBLIC "-//W3C//DTD SVG 1.1//EN" "http://www.w3.org/Graphics/SVG/1.1/DTD/svg11.dtd"><svg t="1754843764005" class="icon" viewBox="0 0 1024 1024" version="1.1" xmlns="http://www.w3.org/2000/svg" p-id="2482" xmlns:xlink="http://www.w3.org/1999/xlink" width="64" height="64"><path d="M897.536 614.4a70.314667 70.314667 0 0 1-0.853333 23.552 130.730667 130.730667 0 0 1-8.192 27.648 122.368 122.368 0 0 1-13.824 25.6 49.322667 49.322667 0 0 1-17.066667 16.213333 39.936 39.936 0 0 1-17.066667 4.949334 51.2 51.2 0 0 1-17.066666-3.242667 146.944 146.944 0 0 0-20.309334-4.608 92.16 92.16 0 0 0-24.746666 0 112.981333 112.981333 0 0 0-25.258667 5.290667 46.933333 46.933333 0 0 0-21.504 13.824 79.872 79.872 0 0 0-22.698667 46.250666A91.648 91.648 0 0 0 716.8 819.2a30.378667 30.378667 0 0 1-2.56 32.426667 62.293333 62.293333 0 0 1-15.36 13.482666 165.717333 165.717333 0 0 1-23.210667 12.458667A138.069333 138.069333 0 0 1 648.533333 887.466667a102.4 102.4 0 0 1-24.234666 3.242666 20.48 20.48 0 0 1-13.824-5.632 32.597333 32.597333 0 0 1-9.045334-12.288 100.181333 100.181333 0 0 0-30.378666-43.52 75.264 75.264 0 0 0-50.005334-18.261333 77.312 77.312 0 0 0-50.005333 18.261333 100.010667 100.010667 0 0 0-31.232 42.666667 28.501333 28.501333 0 0 1-12.288 14.336 36.522667 36.522667 0 0 1-17.066667 4.437333 92.501333 92.501333 0 0 1-25.6-4.096 257.536 257.536 0 0 1-28.501333-10.069333 131.242667 131.242667 0 0 1-25.6-14.336 68.266667 68.266667 0 0 1-17.066667-16.213333 24.064 24.064 0 0 1-4.437333-13.482667 48.810667 48.810667 0 0 1 5.973333-21.504A81.066667 81.066667 0 0 0 320.853333 768a73.557333 73.557333 0 0 0-20.821333-44.202667 51.2 51.2 0 0 0-26.965333-16.213333 108.202667 108.202667 0 0 0-30.890667-2.901333 136.533333 136.533333 0 0 0-34.133333 6.485333 33.109333 33.109333 0 0 1-22.869334-1.536 36.181333 36.181333 0 0 1-17.066666-15.189333A143.701333 143.701333 0 0 1 153.6 668.501333a165.888 165.888 0 0 1-9.386667-29.184A69.290667 69.290667 0 0 1 142.336 614.4a25.429333 25.429333 0 0 1 17.066667-22.698667 115.2 115.2 0 0 0 43.861333-32.085333A74.24 74.24 0 0 0 221.866667 509.610667 71.168 71.168 0 0 0 202.581333 460.8a123.392 123.392 0 0 0-43.861333-31.744 21.504 21.504 0 0 1-12.288-11.776 40.106667 40.106667 0 0 1-4.778667-19.114667A95.914667 95.914667 0 0 1 144.896 375.466667 144.896 144.896 0 0 1 153.6 349.525333a121.173333 121.173333 0 0 1 12.117333-22.357333 48.298667 48.298667 0 0 1 15.018667-15.018667 18.090667 18.090667 0 0 1 12.629333-3.242666 66.56 66.56 0 0 1 13.482667 3.242666 96.768 96.768 0 0 0 51.2 5.973334 82.261333 82.261333 0 0 0 46.762667-23.04 56.832 56.832 0 0 0 14.165333-24.064 127.829333 127.829333 0 0 0 5.290667-27.989334 124.586667 124.586667 0 0 0 0-25.258666c0-7.509333-1.536-12.970667-2.048-16.213334a100.522667 100.522667 0 0 1-2.901334-11.434666 17.066667 17.066667 0 0 1 1.194667-11.264 46.250667 46.250667 0 0 1 17.066667-19.968 136.533333 136.533333 0 0 1 27.136-14.165334A162.816 162.816 0 0 1 393.557333 136.533333a105.130667 105.130667 0 0 1 22.016-2.901333 20.821333 20.821333 0 0 1 17.066667 6.826667 39.424 39.424 0 0 1 8.533333 14.336 97.28 97.28 0 0 0 29.354667 38.570666 73.216 73.216 0 0 0 47.957333 17.066667 83.797333 83.797333 0 0 0 50.346667-15.872A85.333333 85.333333 0 0 0 599.210667 153.6a56.32 56.32 0 0 1 10.24-13.482667 19.626667 19.626667 0 0 1 14.165333-6.826666A102.4 102.4 0 0 1 648.533333 136.533333a172.032 172.032 0 0 1 26.453334 8.874667 103.253333 103.253333 0 0 1 23.893333 14.677333 81.237333 81.237333 0 0 1 17.066667 19.456 19.114667 19.114667 0 0 1 2.389333 14.336 51.2 51.2 0 0 1-3.242667 10.922667 86.528 86.528 0 0 0-6.485333 49.664 80.896 80.896 0 0 0 23.552 45.397333 73.045333 73.045333 0 0 0 47.957333 21.504 106.325333 106.325333 0 0 0 52.906667-9.216 23.722667 23.722667 0 0 1 15.701333-3.242666 24.576 24.576 0 0 1 15.872 7.168 96.768 96.768 0 0 1 21.674667 34.133333 193.706667 193.706667 0 0 1 12.458667 46.762667 27.648 27.648 0 0 1-4.437334 21.504 29.184 29.184 0 0 1-12.629333 10.069333 96.426667 96.426667 0 0 0-42.666667 32.256 78.677333 78.677333 0 0 0-17.066666 51.2 81.408 81.408 0 0 0 14.336 47.616 83.285333 83.285333 0 0 0 39.424 29.696 56.661333 56.661333 0 0 1 9.728 6.485333 36.522667 36.522667 0 0 1 12.117333 18.602667z m-378.026667 73.216a175.616 175.616 0 0 0 125.610667-51.2 180.565333 180.565333 0 0 0 37.546667-57.344 179.712 179.712 0 0 0 0-136.533333 177.152 177.152 0 0 0-163.498667-107.690667 170.666667 170.666667 0 0 0-68.266667 13.824 176.981333 176.981333 0 0 0-93.866666 93.866667 177.664 177.664 0 0 0 0 137.386666 183.125333 183.125333 0 0 0 37.717333 56.490667 175.274667 175.274667 0 0 0 56.149333 38.229333 170.666667 170.666667 0 0 0 68.266667 13.824z" fill="#2c2c2c" p-id="2483"></path></svg>