<?xml version="1.0" standalone="no"?><!DOCTYPE svg PUBLIC "-//W3C//DTD SVG 1.1//EN" "http://www.w3.org/Graphics/SVG/1.1/DTD/svg11.dtd"><svg t="1762586547708" class="icon" viewBox="0 0 1024 1024" version="1.1" xmlns="http://www.w3.org/2000/svg" p-id="64075" xmlns:xlink="http://www.w3.org/1999/xlink" width="200" height="200"><path d="M128.768 108.928C258.56 36.288 387.072 0 514.304 0c127.104 0 254.272 36.288 381.44 108.8a64 64 0 0 1 32.256 55.616V577.92a256 256 0 0 1-99.904 202.88l-277.12 213.184a64 64 0 0 1-78.016 0l-277.056-213.12A256 256 0 0 1 96 577.92V164.736a64 64 0 0 1 32.768-55.872z m412.096 583.936c107.776 0 177.088-63.488 177.088-158.848 0-51.008-12.48-70.272-37.504-89.472-37.568-28.928-87.68-44.288-151.168-45.248-51.008-0.96-80.832-2.944-91.456-5.76-24.064-4.864-36.544-19.328-36.544-41.472 0-33.664 36.544-58.688 81.792-58.688 63.552-5.76 123.264 11.52 125.184 38.528 3.84 51.968 85.632 34.624 83.712-4.864-5.76-101.056-100.096-120.32-193.472-120.32-115.52 0-187.712 55.872-187.712 149.248 0 99.136 65.408 148.224 196.352 148.224H531.2c60.672 0 90.496 1.92 90.496 36.608 0 24.96-6.72 41.408-19.2 50.048-25.088 18.304-49.152 26.944-73.216 26.944-47.168 0-132.864-5.76-146.304-60.672-6.784-15.36-26.944-23.04-41.408-23.04-21.184 0-31.744 7.68-31.744 22.08-5.76 39.488 26.88 103.04 117.44 127.104l43.328 8.64c29.824 1.92 61.568 0.96 70.272 0.96z" fill="#46A7FF" p-id="64076"></path></svg>