<?xml version="1.0" standalone="no"?><!DOCTYPE svg PUBLIC "-//W3C//DTD SVG 1.1//EN" "http://www.w3.org/Graphics/SVG/1.1/DTD/svg11.dtd"><svg t="1762277839575" class="icon" viewBox="0 0 1024 1024" version="1.1" xmlns="http://www.w3.org/2000/svg" p-id="33065" xmlns:xlink="http://www.w3.org/1999/xlink" width="200" height="200"><path d="M96 588.8a52.053 52.053 0 0 1 52.48-52.053h103.253a52.48 52.48 0 0 1 52.48 52.053v312.32a52.053 52.053 0 0 1-52.48 52.053H148.48A52.48 52.48 0 0 1 96 901.12z m624.213-207.787a52.053 52.053 0 0 1 52.48-52.053H875.52A52.48 52.48 0 0 1 928 381.013v519.68a52.053 52.053 0 0 1-52.48 52.054H772.693a52.48 52.48 0 0 1-52.48-52.054z m-321.706-222.72a52.907 52.907 0 0 1 53.333-52.906h102.827a53.333 53.333 0 0 1 55.466 52.906v741.974a52.907 52.907 0 0 1-55.466 52.906H451.84a53.333 53.333 0 0 1-53.333-52.906z" fill="#FB916C" p-id="33066"></path></svg>