<?xml version="1.0" standalone="no"?><!DOCTYPE svg PUBLIC "-//W3C//DTD SVG 1.1//EN" "http://www.w3.org/Graphics/SVG/1.1/DTD/svg11.dtd"><svg t="1754710530884" class="icon" viewBox="0 0 1024 1024" version="1.1" xmlns="http://www.w3.org/2000/svg" p-id="1152" width="64" height="64" xmlns:xlink="http://www.w3.org/1999/xlink"><path d="M987.434667 337.557333L521.962667 130.794667a21.824 21.824 0 0 0-17.770667 0L38.72 337.557333c-9.813333 4.352-16.32 15.424-16.32 27.754667 0 12.373333 6.506667 23.424 16.32 27.776l465.450667 206.784c5.674667 2.56 12.117333 2.56 17.792 0l361.898666-160.768v164.48c-19.413333 10.602667-32.874667 33.706667-32.874666 60.522667 0 26.858667 13.461333 49.92 32.853333 60.544v57.386666h47.68v-57.386666c19.413333-10.602667 32.896-33.706667 32.896-60.544s-13.482667-49.92-32.896-60.544v-185.621334l55.893333-24.853333c9.813333-4.352 16.32-15.402667 16.32-27.776 0-12.330667-6.506667-23.402667-16.298666-27.733333zM513.088 641.386667a50.986667 50.986667 0 0 1-20.8-4.48L202.112 507.989333v178.005334c0 145.792 211.626667 189.546667 277.781333 189.546666h66.325334c49.557333 0 277.802667-43.754667 277.802666-189.546666v-178.005334l-290.176 128.917334a50.773333 50.773333 0 0 1-20.757333 4.48z" fill="#FAAD14" p-id="1153"></path></svg>