<?xml version="1.0" standalone="no"?><!DOCTYPE svg PUBLIC "-//W3C//DTD SVG 1.1//EN" "http://www.w3.org/Graphics/SVG/1.1/DTD/svg11.dtd"><svg t="1754710957637" class="icon" viewBox="0 0 1024 1024" version="1.1" xmlns="http://www.w3.org/2000/svg" p-id="1524" xmlns:xlink="http://www.w3.org/1999/xlink" width="64" height="64"><path d="M42.666667 853.333333h938.666666a42.666667 42.666667 0 1 1 0 85.333334H42.666667a42.666667 42.666667 0 1 1 0-85.333334z m976.426666-517.162666c10.666667 17.28 3.114667 41.066667-14.976 47.018666L238.784 635.882667c-31.082667 10.218667-64.832 1.088-87.872-23.744L6.208 457.173333c-12.8-13.717333-4.586667-37.76 13.205333-38.613333l23.082667-1.130667a63.786667 63.786667 0 0 1 34.858667 8.490667l93.866666 53.76a73.877333 73.877333 0 0 0 64.384 4.778667l153.429334-60.714667L199.466667 152.106667c-13.568-23.530667-3.626667-55.082667 20.373333-63.765334 12.714667-4.565333 28.522667-4.778667 47.317333 5.098667 46.762667 24.576 239.125333 183.104 296.746667 230.869333 10.645333 8.853333 23.573333 13.866667 36.970667 14.336l2.858666 0.085334 211.413334-83.690667a134.037333 134.037333 0 0 1 71.637333-7.893333c38.933333 6.485333 94.122667 27.093333 132.330667 89.002666z" fill="#3ABCFB" p-id="1525"></path></svg>