<?xml version="1.0" standalone="no"?><!DOCTYPE svg PUBLIC "-//W3C//DTD SVG 1.1//EN" "http://www.w3.org/Graphics/SVG/1.1/DTD/svg11.dtd"><svg t="1754750831954" class="icon" viewBox="0 0 1024 1024" version="1.1" xmlns="http://www.w3.org/2000/svg" p-id="37526" xmlns:xlink="http://www.w3.org/1999/xlink" width="64" height="64"><path d="M0 0h1024v1024H0V0z" fill="#202425" opacity=".01" p-id="37527"></path><path d="M178.961067 171.690667A136.533333 136.533333 0 0 1 311.3984 68.266667h401.2032a136.533333 136.533333 0 0 1 132.437333 103.424l65.9456 263.7824A34.133333 34.133333 0 0 1 877.909333 477.866667H146.1248a34.133333 34.133333 0 0 1-33.109333-42.3936L178.961067 171.690667z" fill="#FFAA44" p-id="37528"></path><path d="M34.133333 546.133333a136.533333 136.533333 0 0 1 136.533334-136.533333h682.666666a136.533333 136.533333 0 0 1 136.533334 136.533333v204.8a68.266667 68.266667 0 0 1-68.266667 68.266667v68.266667a68.266667 68.266667 0 1 1-136.533333 0v-68.266667H238.933333v68.266667a68.266667 68.266667 0 1 1-136.533333 0v-68.266667a68.266667 68.266667 0 0 1-68.266667-68.266667v-204.8z" fill="#FF7744" p-id="37529"></path><path d="M300.714667 196.5056A34.133333 34.133333 0 0 1 333.824 170.666667h356.352a34.133333 34.133333 0 0 1 33.109333 25.838933l17.066667 68.266667A34.133333 34.133333 0 0 1 707.242667 307.2H316.757333a34.133333 34.133333 0 0 1-33.109333-42.427733l17.066667-68.266667zM307.2 614.4a68.266667 68.266667 0 1 1-136.533333 0 68.266667 68.266667 0 0 1 136.533333 0z m477.866667 68.266667a68.266667 68.266667 0 1 0 0-136.533334 68.266667 68.266667 0 0 0 0 136.533334z" fill="#FFFFFF" p-id="37530"></path></svg>