<?xml version="1.0" standalone="no"?><!DOCTYPE svg PUBLIC "-//W3C//DTD SVG 1.1//EN" "http://www.w3.org/Graphics/SVG/1.1/DTD/svg11.dtd"><svg t="1762586277892" class="icon" viewBox="0 0 1024 1024" version="1.1" xmlns="http://www.w3.org/2000/svg" p-id="49780" xmlns:xlink="http://www.w3.org/1999/xlink" width="200" height="200"><path d="M938.666667 384v469.333333c0 46.933333-38.4 85.333333-85.333334 85.333334H170.666667c-46.933333 0-85.333333-38.4-85.333334-85.333334V384h853.333334z m-234.666667 149.333333c-12.8-12.8-29.866667-12.8-42.666667 0L469.333333 725.333333l-106.666666-106.666666c-12.8-12.8-29.866667-12.8-42.666667 0-12.8 12.8-12.8 29.866667 0 42.666666l119.466667 119.466667c17.066667 17.066667 42.666667 17.066667 59.733333 0l204.8-204.8c12.8-12.8 12.8-29.866667 0-42.666667zM213.333333 170.666667c0 46.933333 38.4 85.333333 85.333334 85.333333s81.066667-34.133333 85.333333-81.066667V170.666667h256c0 46.933333 38.4 85.333333 85.333333 85.333333s81.066667-34.133333 85.333334-81.066667V170.666667h42.666666c46.933333 0 85.333333 38.4 85.333334 85.333333v85.333333H85.333333V256c0-46.933333 38.4-85.333333 85.333334-85.333333h42.666666z m85.333334-85.333334c25.6 0 42.666667 17.066667 42.666666 42.666667v42.666667c0 25.6-17.066667 42.666667-42.666666 42.666666s-42.666667-17.066667-42.666667-42.666666V128c0-21.333333 17.066667-42.666667 42.666667-42.666667z m426.666666 0c25.6 0 42.666667 17.066667 42.666667 42.666667v42.666667c0 25.6-17.066667 42.666667-42.666667 42.666666s-42.666667-17.066667-42.666666-42.666666V128c0-21.333333 17.066667-42.666667 42.666666-42.666667z" fill="#EB5F1B" p-id="49781"></path></svg>