<?xml version="1.0" standalone="no"?><!DOCTYPE svg PUBLIC "-//W3C//DTD SVG 1.1//EN" "http://www.w3.org/Graphics/SVG/1.1/DTD/svg11.dtd"><svg t="1754710952896" class="icon" viewBox="0 0 1024 1024" version="1.1" xmlns="http://www.w3.org/2000/svg" p-id="1362" xmlns:xlink="http://www.w3.org/1999/xlink" width="64" height="64"><path d="M808.149333 543.274667L519.594667 216.96l-13.546667 12.736a19.84 19.84 0 0 1-8.192 4.693333 233.664 233.664 0 0 1-64.853333 233.493334 19.925333 19.925333 0 0 1-13.653334 5.418666h-0.597333a19.925333 19.925333 0 0 1-13.909333-6.272L112.064 155.434667a19.925333 19.925333 0 0 1 0.874667-28.16 233.770667 233.770667 0 0 1 255.381333-42.944 20.266667 20.266667 0 0 1 0.512-0.512l60.352-56.746667a100.138667 100.138667 0 0 1 137.216 145.898667l-17.770667 16.682666L841.258667 520.533333a72.277333 72.277333 0 0 1 95.082666 68.650667 72.405333 72.405333 0 0 1-87.125333 70.805333 20.181333 20.181333 0 0 1-1.173333 1.322667l-172.032 176.704h121.493333c88.789333 0 161.066667 72.256 161.066667 161.066667a19.925333 19.925333 0 0 1-19.968 19.904h-725.12a19.925333 19.925333 0 0 1-19.925334-19.925334c0-88.789333 72.256-161.066667 161.066667-161.066666H620.373333l192.490667-197.674667a72.32 72.32 0 0 1-4.736-97.066667zM157.610667 234.666667l174.592 187.221333A128 128 0 1 1 157.610667 234.666667z" fill="#FAAD14" p-id="1363"></path></svg>